<?xml version="1.0" encoding="UTF-8" standalone="no"?>
<!DOCTYPE svg PUBLIC "-//W3C//DTD SVG 1.1//EN"
 "http://www.w3.org/Graphics/SVG/1.1/DTD/svg11.dtd">
<!-- Generated by graphviz version 11.0.0 (20240428.1522)
 -->
<!-- Title: work Pages: 1 -->
<svg width="327pt" height="204pt"
 viewBox="0.00 0.00 326.58 204.26" xmlns="http://www.w3.org/2000/svg" xmlns:xlink="http://www.w3.org/1999/xlink">
<g id="graph0" class="graph" transform="scale(1 1) rotate(0) translate(4 175.76)">
<title>work</title>
<polygon fill="white" stroke="none" points="-4,28.5 -4,-175.76 322.58,-175.76 322.58,28.5 -4,28.5"/>
<text text-anchor="start" x="31.04" y="17.3" font-family="Times,serif" font-size="14.00">Work, node_id=8698, workdir=flow_g0w0/w1</text>
<g id="clust1" class="cluster">
<title>clusterw1</title>
<path fill="#e0eeee" stroke="black" d="M11.49,0.25C11.49,0.25 212.03,0.25 212.03,0.25 218.03,0.25 224.03,-5.75 224.03,-11.75 224.03,-11.75 224.03,-159.76 224.03,-159.76 224.03,-165.76 218.03,-171.76 212.03,-171.76 212.03,-171.76 11.49,-171.76 11.49,-171.76 5.49,-171.76 -0.51,-165.76 -0.51,-159.76 -0.51,-159.76 -0.51,-11.75 -0.51,-11.75 -0.51,-5.75 5.49,0.25 11.49,0.25"/>
<text text-anchor="middle" x="111.76" y="-154.46" font-family="Times,serif" font-size="14.00">Work (w1)</text>
</g>
<!-- w0_t0 -->
<g id="node1" class="node">
<title>w0_t0</title>
<ellipse fill="#ff0000" stroke="#ff0000" cx="276.51" cy="-61.14" rx="42.07" ry="28.99"/>
<text text-anchor="middle" x="276.51" y="-64.34" font-family="Times,serif" font-size="14.00">w0_t0</text>
<text text-anchor="middle" x="276.51" y="-47.84" font-family="Times,serif" font-size="14.00">ScfTask</text>
</g>
<!-- w1_t0 -->
<g id="node2" class="node">
<title>w1_t0</title>
<ellipse fill="#c85064" stroke="#c85064" cx="69.34" cy="-36.04" rx="47.38" ry="28.99"/>
<text text-anchor="middle" x="69.34" y="-39.24" font-family="Times,serif" font-size="14.00">w1_t0</text>
<text text-anchor="middle" x="69.34" y="-22.74" font-family="Times,serif" font-size="14.00">NscfTask</text>
</g>
<!-- w0_t0&#45;&gt;w1_t0 -->
<g id="edge1" class="edge">
<title>w0_t0&#45;&gt;w1_t0</title>
<path fill="none" stroke="#ff0000" d="M234.59,-56.06C203.78,-52.33 161.53,-47.21 127.47,-43.09"/>
<polygon fill="#ff0000" stroke="#ff0000" points="128.11,-39.64 117.76,-41.91 127.27,-46.59 128.11,-39.64"/>
<text text-anchor="middle" x="167.15" y="-52.77" font-family="Times,serif" font-size="14.00">DEN</text>
</g>
<!-- w1_t1 -->
<g id="node3" class="node">
<title>w1_t1</title>
<ellipse fill="#ff8000" stroke="#ff8000" cx="49.03" cy="-104.33" rx="42.07" ry="28.99"/>
<text text-anchor="middle" x="49.03" y="-107.53" font-family="Times,serif" font-size="14.00">w1_t1</text>
<text text-anchor="middle" x="49.03" y="-91.03" font-family="Times,serif" font-size="14.00">ScrTask</text>
</g>
<!-- w1_t0&#45;&gt;w1_t1 -->
<g id="edge2" class="edge">
<title>w1_t0&#45;&gt;w1_t1</title>
<path fill="none" stroke="#c85064" d="M54.07,-63.88C54.03,-64 53.99,-64.12 53.96,-64.23"/>
<polygon fill="#c85064" stroke="#c85064" points="50.64,-63.12 51.22,-73.7 57.36,-65.06 50.64,-63.12"/>
<text text-anchor="middle" x="69.39" y="-67.26" font-family="Times,serif" font-size="14.00">WFK</text>
</g>
<!-- w1_t0&#45;&gt;w1_t1 -->
<g id="edge5" class="edge">
<title>w1_t0&#45;&gt;w1_t1</title>
<path fill="none" stroke="#c85064" d="M67.55,-65.31C67.49,-65.56 67.42,-65.8 67.36,-66.05"/>
<polygon fill="#c85064" stroke="#c85064" points="64.01,-65.02 64.55,-75.61 70.73,-67 64.01,-65.02"/>
<text text-anchor="middle" x="52.08" y="-68.88" font-family="Times,serif" font-size="14.00">WFK</text>
</g>
<!-- w1_t2 -->
<g id="node4" class="node">
<title>w1_t2</title>
<ellipse fill="#00ff00" stroke="#00ff00" cx="161.75" cy="-110.27" rx="54.27" ry="28.99"/>
<text text-anchor="middle" x="161.75" y="-113.47" font-family="Times,serif" font-size="14.00">w1_t2</text>
<text text-anchor="middle" x="161.75" y="-96.97" font-family="Times,serif" font-size="14.00">SigmaTask</text>
</g>
<!-- w1_t0&#45;&gt;w1_t2 -->
<g id="edge3" class="edge">
<title>w1_t0&#45;&gt;w1_t2</title>
<path fill="none" stroke="#c85064" d="M91.72,-61.91C99.02,-68.4 107.4,-75.37 115.77,-81.95"/>
<polygon fill="#c85064" stroke="#c85064" points="113.54,-84.65 123.59,-87.99 117.81,-79.11 113.54,-84.65"/>
<text text-anchor="middle" x="119.12" y="-58.63" font-family="Times,serif" font-size="14.00">WFK</text>
</g>
<!-- w1_t0&#45;&gt;w1_t2 -->
<g id="edge6" class="edge">
<title>w1_t0&#45;&gt;w1_t2</title>
<path fill="none" stroke="#c85064" d="M104.39,-55.96C112.78,-62.23 121.7,-69.31 129.94,-76.25"/>
<polygon fill="#c85064" stroke="#c85064" points="127.56,-78.82 137.42,-82.69 132.12,-73.51 127.56,-78.82"/>
<text text-anchor="middle" x="132.54" y="-69.31" font-family="Times,serif" font-size="14.00">WFK</text>
</g>
<!-- w1_t1&#45;&gt;w1_t2 -->
<g id="edge4" class="edge">
<title>w1_t1&#45;&gt;w1_t2</title>
<path fill="none" stroke="#ff8000" d="M89.7,-113C91.78,-113.17 93.89,-113.33 96.02,-113.48"/>
<polygon fill="#ff8000" stroke="#ff8000" points="95.8,-116.98 105.99,-114.07 96.21,-109.99 95.8,-116.98"/>
<text text-anchor="middle" x="99.24" y="-99.94" font-family="Times,serif" font-size="14.00">SCR</text>
</g>
<!-- w1_t1&#45;&gt;w1_t2 -->
<g id="edge7" class="edge">
<title>w1_t1&#45;&gt;w1_t2</title>
<path fill="none" stroke="#ff8000" d="M91.03,-99.99C93.53,-100.05 96.07,-100.13 98.63,-100.23"/>
<polygon fill="#ff8000" stroke="#ff8000" points="98.24,-103.71 108.4,-100.71 98.59,-96.72 98.24,-103.71"/>
<text text-anchor="middle" x="94.83" y="-86.81" font-family="Times,serif" font-size="14.00">SCR</text>
</g>
</g>
</svg>