<?xml version="1.0" encoding="UTF-8" standalone="no"?>
<!DOCTYPE svg PUBLIC "-//W3C//DTD SVG 1.1//EN"
 "http://www.w3.org/Graphics/SVG/1.1/DTD/svg11.dtd">
<!-- Generated by graphviz version 11.0.0 (20240428.1522)
 -->
<!-- Title: flow Pages: 1 -->
<svg width="329pt" height="208pt"
 viewBox="0.00 0.00 328.57 208.05" xmlns="http://www.w3.org/2000/svg" xmlns:xlink="http://www.w3.org/1999/xlink">
<g id="graph0" class="graph" transform="scale(1 1) rotate(0) translate(4 179.55)">
<title>flow</title>
<polygon fill="white" stroke="none" points="-4,28.5 -4,-179.55 324.57,-179.55 324.57,28.5 -4,28.5"/>
<text text-anchor="start" x="43.66" y="17.3" font-family="Times,serif" font-size="14.00">Flow, node_id=8693, workdir=flow_g0w0</text>
<g id="clust1" class="cluster">
<title>clusterw0</title>
<path fill="#e0eeee" stroke="black" d="M11.42,-23.96C11.42,-23.96 140.1,-23.96 140.1,-23.96 146.1,-23.96 152.1,-29.96 152.1,-35.96 152.1,-35.96 152.1,-163.55 152.1,-163.55 152.1,-169.55 146.1,-175.55 140.1,-175.55 140.1,-175.55 11.42,-175.55 11.42,-175.55 5.42,-175.55 -0.58,-169.55 -0.58,-163.55 -0.58,-163.55 -0.58,-35.96 -0.58,-35.96 -0.58,-29.96 5.42,-23.96 11.42,-23.96"/>
<text text-anchor="middle" x="75.76" y="-158.25" font-family="Times,serif" font-size="14.00">BandStructureWork (w0)</text>
</g>
<g id="clust2" class="cluster">
<title>clusterw1</title>
<path fill="#e0eeee" stroke="black" d="M172.45,0.26C172.45,0.26 308.57,0.26 308.57,0.26 314.57,0.26 320.57,-5.74 320.57,-11.74 320.57,-11.74 320.57,-138.53 320.57,-138.53 320.57,-144.53 314.57,-150.53 308.57,-150.53 308.57,-150.53 172.45,-150.53 172.45,-150.53 166.45,-150.53 160.45,-144.53 160.45,-138.53 160.45,-138.53 160.45,-11.74 160.45,-11.74 160.45,-5.74 166.45,0.26 172.45,0.26"/>
<text text-anchor="middle" x="240.51" y="-133.23" font-family="Times,serif" font-size="14.00">Work (w1)</text>
</g>
<!-- w0_t0 -->
<g id="node1" class="node">
<title>w0_t0</title>
<ellipse fill="#ff0000" stroke="#ff0000" cx="114.22" cy="-51.11" rx="29.88" ry="19.45"/>
<text text-anchor="middle" x="114.22" y="-53.26" font-family="Times,serif" font-size="8.00">w0_t0</text>
<text text-anchor="middle" x="114.22" y="-43.51" font-family="Times,serif" font-size="8.00">ScfTask</text>
</g>
<!-- w0_t1 -->
<g id="node2" class="node">
<title>w0_t1</title>
<ellipse fill="#c85064" stroke="#c85064" cx="39.66" cy="-69.6" rx="33.06" ry="19.45"/>
<text text-anchor="middle" x="39.66" y="-71.75" font-family="Times,serif" font-size="8.00">w0_t1</text>
<text text-anchor="middle" x="39.66" y="-62" font-family="Times,serif" font-size="8.00">NscfTask</text>
</g>
<!-- w0_t0&#45;&gt;w0_t1 -->
<g id="edge1" class="edge">
<title>w0_t0&#45;&gt;w0_t1</title>
<path fill="none" stroke="#ff0000" d="M86.03,-58.1C84.43,-58.5 82.81,-58.9 81.18,-59.3"/>
<polygon fill="#ff0000" stroke="#ff0000" points="80.71,-55.81 71.85,-61.62 82.4,-62.61 80.71,-55.81"/>
<text text-anchor="middle" x="69.73" y="-45.4" font-family="Times,serif" font-size="14.00">DEN</text>
</g>
<!-- w0_t2 -->
<g id="node3" class="node">
<title>w0_t2</title>
<ellipse fill="#c85064" stroke="#c85064" cx="105.66" cy="-123.6" rx="33.06" ry="19.45"/>
<text text-anchor="middle" x="105.66" y="-125.75" font-family="Times,serif" font-size="8.00">w0_t2</text>
<text text-anchor="middle" x="105.66" y="-116" font-family="Times,serif" font-size="8.00">NscfTask</text>
</g>
<!-- w0_t0&#45;&gt;w0_t2 -->
<g id="edge2" class="edge">
<title>w0_t0&#45;&gt;w0_t2</title>
<path fill="none" stroke="#ff0000" d="M111.88,-70.92C111.1,-77.55 110.2,-85.11 109.34,-92.4"/>
<polygon fill="#ff0000" stroke="#ff0000" points="105.87,-91.97 108.17,-102.31 112.82,-92.79 105.87,-91.97"/>
<text text-anchor="middle" x="96.74" y="-84.86" font-family="Times,serif" font-size="14.00">DEN</text>
</g>
<!-- w1_t0 -->
<g id="node4" class="node">
<title>w1_t0</title>
<ellipse fill="#c85064" stroke="#c85064" cx="273.65" cy="-98.59" rx="33.06" ry="19.45"/>
<text text-anchor="middle" x="273.65" y="-100.74" font-family="Times,serif" font-size="8.00">w1_t0</text>
<text text-anchor="middle" x="273.65" y="-90.99" font-family="Times,serif" font-size="8.00">NscfTask</text>
</g>
<!-- w0_t0&#45;&gt;w1_t0 -->
<g id="edge3" class="edge">
<title>w0_t0&#45;&gt;w1_t0</title>
<path fill="none" stroke="#ff0000" d="M141.63,-59.27C166.78,-66.76 204.37,-77.96 233.01,-86.49"/>
<polygon fill="#ff0000" stroke="#ff0000" points="231.86,-89.8 242.45,-89.3 233.86,-83.09 231.86,-89.8"/>
<text text-anchor="middle" x="173.45" y="-76.08" font-family="Times,serif" font-size="14.00">DEN</text>
</g>
<!-- w1_t1 -->
<g id="node5" class="node">
<title>w1_t1</title>
<ellipse fill="#ff8000" stroke="#ff8000" cx="282.69" cy="-26.38" rx="29.88" ry="19.45"/>
<text text-anchor="middle" x="282.69" y="-28.53" font-family="Times,serif" font-size="8.00">w1_t1</text>
<text text-anchor="middle" x="282.69" y="-18.78" font-family="Times,serif" font-size="8.00">ScrTask</text>
</g>
<!-- w1_t0&#45;&gt;w1_t1 -->
<g id="edge4" class="edge">
<title>w1_t0&#45;&gt;w1_t1</title>
<path fill="none" stroke="#c85064" d="M276.12,-78.86C276.95,-72.25 277.89,-64.72 278.8,-57.46"/>
<polygon fill="#c85064" stroke="#c85064" points="282.27,-57.95 280.04,-47.59 275.32,-57.08 282.27,-57.95"/>
<text text-anchor="middle" x="262.09" y="-54.86" font-family="Times,serif" font-size="14.00">WFK</text>
</g>
<!-- w1_t2 -->
<g id="node6" class="node">
<title>w1_t2</title>
<ellipse fill="#00ff00" stroke="#00ff00" cx="204.69" cy="-44.38" rx="36.24" ry="19.45"/>
<text text-anchor="middle" x="204.69" y="-46.53" font-family="Times,serif" font-size="8.00">w1_t2</text>
<text text-anchor="middle" x="204.69" y="-36.78" font-family="Times,serif" font-size="8.00">SigmaTask</text>
</g>
<!-- w1_t0&#45;&gt;w1_t2 -->
<g id="edge5" class="edge">
<title>w1_t0&#45;&gt;w1_t2</title>
<path fill="none" stroke="#c85064" d="M253.7,-82.91C247.58,-78.09 240.7,-72.69 234.08,-67.49"/>
<polygon fill="#c85064" stroke="#c85064" points="236.53,-64.95 226.5,-61.53 232.2,-70.46 236.53,-64.95"/>
<text text-anchor="middle" x="228.52" y="-78.4" font-family="Times,serif" font-size="14.00">WFK</text>
</g>
<!-- w1_t1&#45;&gt;w1_t2 -->
<g id="edge6" class="edge">
<title>w1_t1&#45;&gt;w1_t2</title>
<path fill="none" stroke="#ff8000" d="M254.09,-32.98C252.49,-33.35 250.86,-33.73 249.22,-34.11"/>
<polygon fill="#ff8000" stroke="#ff8000" points="248.75,-30.62 239.79,-36.28 250.32,-37.44 248.75,-30.62"/>
<text text-anchor="middle" x="238.9" y="-20.24" font-family="Times,serif" font-size="14.00">SCR</text>
</g>
</g>
</svg>